<?xml version="1.0" standalone="no"?>
<!DOCTYPE svg PUBLIC "-//W3C//DTD SVG 20010904//EN"
 "http://www.w3.org/TR/2001/REC-SVG-20010904/DTD/svg10.dtd">
<svg version="1.0" xmlns="http://www.w3.org/2000/svg"
 width="512.000000pt" height="512.000000pt" viewBox="0 0 512.000000 512.000000"
 preserveAspectRatio="xMidYMid meet">

<g transform="translate(0.000000,512.000000) scale(0.100000,-0.100000)"
fill="#000000" stroke="none">
<path d="M2159 5093 c-72 -37 -109 -90 -116 -169 -6 -67 18 -132 63 -174 l24
-23 0 -613 0 -612 -55 -41 c-119 -90 -224 -255 -268 -421 l-22 -85 0 -1400 0
-1400 22 -40 c27 -50 58 -80 105 -100 56 -23 1240 -23 1296 0 47 20 78 50 105
100 l22 40 0 1400 0 1400 -22 85 c-44 166 -149 331 -268 421 l-55 41 0 612 0
613 24 23 c45 42 69 107 63 174 -7 79 -44 132 -116 169 l-55 27 -346 0 -346 0
-55 -27z m739 -149 c44 -31 16 -94 -43 -94 -81 0 -118 -95 -55 -142 l30 -22 0
-622 c0 -342 3 -629 6 -638 3 -9 34 -36 69 -61 85 -60 159 -145 200 -230 68
-139 65 -69 65 -1336 0 -849 -3 -1155 -12 -1180 -40 -118 -141 -187 -300 -204
-66 -7 -95 -27 -104 -71 -5 -24 0 -37 19 -60 25 -28 27 -29 119 -28 105 1 186
21 241 58 l37 25 0 -77 c0 -47 -5 -83 -12 -90 -17 -17 -1179 -17 -1196 0 -7 7
-12 43 -12 90 l0 77 37 -25 c75 -50 128 -59 381 -59 234 0 234 0 253 24 26 32
25 82 -3 108 -21 19 -39 21 -218 26 -151 3 -206 8 -245 22 -97 34 -163 97
-193 184 -9 25 -12 331 -12 1180 0 1267 -3 1197 65 1336 41 85 115 170 200
230 35 25 66 52 69 61 3 9 6 297 6 640 l0 624 150 0 c147 0 152 1 175 25 27
26 32 70 12 96 -26 34 -54 39 -223 39 -181 0 -204 6 -204 56 0 51 18 54 360
54 269 0 319 -2 338 -16z"/>
<path d="M2795 3225 c-34 -33 -32 -71 7 -131 33 -51 62 -107 81 -159 8 -21 13
-249 17 -722 l5 -691 24 -26 c33 -35 79 -35 112 0 l24 26 0 671 c0 622 -1 678
-19 747 -39 158 -137 310 -200 310 -15 0 -37 -11 -51 -25z"/>
<path d="M2932 1260 c-26 -25 -36 -72 -30 -150 7 -100 71 -141 135 -86 27 23
28 28 28 114 0 82 -2 93 -24 116 -30 32 -78 34 -109 6z"/>
</g>
</svg>
